PathFileType	4	(X/Y/Z)	/home/abdul/Desktop/myosuite/custom_workspace/IK/output/S4_12_1.trc
DataRate	CameraRate	NumFrames	NumMarkers	Units	OrigDataRate	OrigDataStartFrame	OrigNumFrames
200.0	200.0	22	3	mm	200.0	424	1130
Frame#	Time	V_Shoulder			V_Elbow			V_Wrist		
		X1	Y1	Z1	X2	Y2	Z2	X3	Y3	Z3

424	2.115	-82.66474603575085	581.7883020814148	274.74214520630153	-140.7951482069679	428.5905158151381	29.83839735845759	-70.48823364555413	354.10221053941893	219.86903971067983
425	2.12	-82.72912732295113	581.9494891027309	274.72518769762445	-140.80780859925844	428.6817821802659	29.84360568381138	-70.55632026908631	354.9346392832674	220.1552775474166
426	2.125	-82.7946397781995	582.1074584587283	274.7076041881966	-140.81949927432098	428.7752668467941	29.843077357740217	-70.6235233380441	355.74604936774165	220.42368137389764
427	2.13	-82.86128072953368	582.262139814689	274.6894154043193	-140.83016331236115	428.87091653934374	29.83692846633864	-70.68979452644157	356.53661010537496	220.67483806183427
428	2.135	-82.92904463200924	582.4134687164311	274.67064208114994	-140.8397527050447	428.9686830631091	29.82527744634512	-70.75510228372795	357.30650115557717	220.9093260535595
429	2.14	-82.99792306166239	582.5613867152027	274.65130492597217	-140.84822873742218	429.0685236696422	29.80824453124157	-70.81943169284102	358.05591115857897	221.1277141914793
430	2.145	-83.06790471918247	582.7058414761815	274.63142458327275	-140.8555623308303	429.1704013881781	29.785951210553	-70.88278427614179	358.78503634734545	221.33056059045924
431	2.15	-83.13897544325077	582.8467868702638	274.61102160164853	-140.86173434459033	429.2742853207139	29.75851970510577	-70.94517775076129	359.4940791427982	221.5184115555656
432	2.155	-83.21111823346753	582.9841830488808	274.59011640255534	-140.8667358345719	429.38015089916996	29.726072460862113	-71.0066457350149	360.18324673782314	221.6918005475038
433	2.16	-83.28431328275387	583.1179965016408	274.5687292509087	-140.8705682669517	429.487980103087	29.688731663790705	-71.06723740765162	360.85274967564175	221.8512471980169
434	2.165	-83.35853801908185	583.2482000966493	274.54688022753845	-140.87324368577367	429.59776163644995	29.646618778060784	-71.12701712180828	361.502800428206	221.997256377414
435	2.17	-83.43376715635212	583.3747731034158	274.5245892034959	-140.8747848331996	429.70949106237083	29.599854109663767	-71.18606397563028	362.1336119803267	222.13031731629576
436	2.175	-83.50997275420595	583.497701198315	274.50187581620725	-140.87522522162766	429.8231708945192	29.54855639737405	-71.24447134160259	362.7453964252692	222.25090278343026
437	2.18	-83.58712428652734	583.6169764526211	274.4787594474652	-140.8746091571459	429.93881064434356	29.49284243276256	-71.3023463567061	363.33836357754717	222.35946832161045
438	2.185	-83.66518871835946	583.7325973031926	274.4552592032466	-140.87299171407682	430.0564268232996	29.432826710775146	-71.35980937557751	363.91271960860786	222.45645154318657
439	2.19	-83.74413059093114	583.84456850594	274.4313938953412	-140.87043866065005	430.1760428994737	29.368621112184822	-71.41699338890318	364.46866571104005	222.54227148682463
440	2.195	-83.82391211446041	583.9529010722582	274.40718202477683	-140.86702633611736	430.2976892081772	29.30033461902477	-71.47404340932258	365.006396796844	222.61732803688176
441	2.2	-83.90449326837559	584.0576121886634	274.38264176702233	-140.8628414798881	430.4214028162717	29.228073063908745	-71.53111582715226	365.526100235178	222.68200140662614
442	2.205	-83.98583190856932	584.1587251199182	274.35779095895015	-140.85798101351816	430.54722734018446	29.151938913949046	-71.58837773826917	366.02795463484966	222.73665168634813
443	2.21	-84.06788388127717	584.2562690959872	274.33264708753865	-140.8525517766255	430.67521271777014	29.072031089790038	-71.64600624651251	366.5121286766374	222.78161845722428
444	2.215	-84.15060314315043	584.3502791832022	274.30722728029434	-140.84667021803045	430.80541493438477	28.988444820088308	-71.7041877429751	366.97878000032404	222.81722047159857
445	2.22	-84.2339418870729	584.4407961400751	274.28154829737133	-140.8404620436321	430.9378957037424	28.901271531589586	-71.76311716456104	367.42805415109274	222.84375540013855
